<svg width="45" height="31" viewBox="0 0 45 31" fill="none" xmlns="http://www.w3.org/2000/svg">
<path d="M30.7212 0.174873C32.0199 -0.00722156 33.1207 -0.104355 34.6154 0.174873C36.1101 0.454107 37.5818 1.22098 38.726 1.8971C39.1587 2.1528 40.4718 3.21623 41.3221 4.30552C42.1244 5.33334 42.6211 6.34842 42.9794 7.31941H45V10.3333H43.6422C43.679 10.8606 43.6911 11.4128 43.7019 12.0152C43.7283 13.4662 43.5124 14.5544 43.0529 16.1055L42.9608 16.4002C42.472 17.893 41.5713 19.6365 40.8894 20.4514C40.162 21.3205 39.0031 22.3485 38.726 22.5638L38.355 22.8447C37.8387 23.2273 36.939 23.8636 36.1298 24.286L35.9283 24.3886C35.2126 24.7447 34.5186 24.9971 33.7103 25.2552L34.6251 27.9861H37.4279C38.2643 27.9861 38.9423 28.6608 38.9423 29.4931C38.9423 30.3253 38.2643 31 37.4279 31H28.774C27.9376 31 27.2597 30.3253 27.2596 29.4931C27.2596 28.6608 27.9376 27.9861 28.774 27.9861H31.4327L30.793 26.0772C30.2474 26.2005 29.6891 26.3088 28.9904 26.4388L28.6912 26.4897C27.0671 26.7449 23.6291 27.0106 23.441 27.0847C23.2404 27.1636 23.1289 27.2106 22.9327 27.2999C22.7361 27.3895 18.6058 30.9597 18.6058 30.9597L4.11058 30.7444L12.1154 23.6402H0L16.0096 8.14018C16.0096 8.14018 16.3544 7.83018 16.7715 7.45482L16.7685 7.45103L17.2599 7.01626C17.4113 6.88046 17.5582 6.74707 17.6909 6.62858L18.1731 6.20268C18.2141 6.16754 18.2557 6.13254 18.2977 6.09797L18.7156 5.72881L18.7448 5.70315L18.7752 5.67878C19.1374 5.39043 19.5871 5.12301 19.9195 4.94085C20.2518 4.75868 20.4252 4.69828 20.4252 4.69828C20.4252 4.69828 20.4252 4.69828 21.1812 4.44678C21.1812 4.44678 21.8757 4.28225 22.2283 4.24203C22.2283 4.24203 23.3654 4.09024 24.2308 3.65968C25.0962 3.22913 25.5288 2.36802 27.476 1.29163C28.2873 0.887974 29.2882 0.419716 30.4803 0.212715L30.7212 0.174873ZM34.0563 3.13705C33.0339 2.94605 32.3099 2.99583 31.1437 3.15933C30.3633 3.26877 29.6544 3.57739 28.8307 3.98723C28.8404 3.98239 28.8051 4.00009 28.7145 4.0566C28.6293 4.1097 28.5221 4.18055 28.3937 4.26936C28.1357 4.44786 27.8381 4.66731 27.5334 4.89964C27.2949 5.08151 27.0654 5.26096 26.8599 5.42354C26.9446 5.48287 27.0286 5.54405 27.1113 5.60769L27.7016 6.06266C30.0178 7.84525 31.0747 10.8767 30.3869 13.7656C29.9065 15.7831 28.6254 17.502 26.8548 18.5046L22.5697 20.9307L22.5063 20.9669L22.44 20.9963L19.7784 22.1736C18.9824 22.5256 18.1646 22.8168 17.3322 23.0486L14.1314 25.8893L11.9261 27.8461L17.4961 27.9289C17.8536 27.6214 18.2854 27.2501 18.722 26.8769C19.2526 26.4233 19.7971 25.9604 20.2241 25.6029C20.4358 25.4257 20.6303 25.2647 20.784 25.1408C20.8588 25.0805 20.9408 25.0151 21.0181 24.9567C21.0552 24.9286 21.1113 24.8868 21.1757 24.8423C21.1805 24.839 21.3919 24.6868 21.6731 24.5589L22.0001 24.4147C22.1017 24.3717 22.2033 24.3307 22.3263 24.2822L22.5026 24.2187C22.6678 24.1649 22.7941 24.1384 22.825 24.1317C22.907 24.1139 22.9789 24.1016 23.0256 24.0939C23.1212 24.0781 23.2178 24.0652 23.2969 24.0552C23.4605 24.0346 23.6628 24.0124 23.875 23.9904C24.2976 23.9466 24.8731 23.8915 25.4448 23.8344C26.6725 23.7119 27.8635 23.5823 28.4339 23.4762C29.8394 23.2147 30.5608 23.0659 31.786 22.6946C33.1922 22.2684 33.931 22.0301 34.7227 21.6169C35.5361 21.1923 36.5874 20.4016 36.8621 20.1882C36.8693 20.1821 36.9371 20.1263 37.0696 20.0094C37.2028 19.892 37.3709 19.7397 37.553 19.5676C37.932 19.2093 38.3074 18.827 38.562 18.5227C38.9553 18.0527 39.7695 16.5291 40.1478 15.2528C40.5588 13.8663 40.6922 13.1026 40.6735 12.0694C40.6463 10.5708 40.6071 9.82366 40.3731 9.06265C40.0571 8.03551 39.6663 7.09754 38.9301 6.15433C38.6559 5.80303 38.2583 5.39935 37.8505 5.03712C37.6539 4.86257 37.475 4.71541 37.3349 4.60699C37.2247 4.52166 37.1676 4.48282 37.1591 4.47666C36.0768 3.83844 34.9946 3.31233 34.0563 3.13705ZM25.3239 8.05859C24.1107 7.12501 22.5023 7.01122 21.1926 7.71001C21.1382 7.74738 21.0798 7.78854 21.0164 7.83362C20.7448 8.0269 20.5266 8.18448 20.3416 8.3298L18.7123 9.77113C18.5709 9.8984 18.4403 10.0152 18.3332 10.1117C18.2456 10.1908 18.1734 10.2561 18.1232 10.3014C18.107 10.316 18.0932 10.3285 18.0818 10.3388L7.45633 20.6263H13.2229C15.0735 20.5424 16.8961 20.1152 18.6011 19.3611L21.1939 18.2141L25.4173 15.8233C26.4575 15.2343 27.2098 14.2239 27.492 13.0386C27.896 11.3413 27.2755 9.56037 25.9146 8.51313L25.3239 8.05859ZM35.4001 6.93553C36.0724 6.90978 36.638 7.44892 36.6631 8.13975C36.6881 8.83053 36.1633 9.41153 35.4909 9.43732C34.8185 9.46302 34.253 8.92349 34.2279 8.23266C34.203 7.54197 34.7278 6.96132 35.4001 6.93553Z" fill="#FF4D00"/>
</svg>
