<svg width="1177" height="1151" viewBox="0 0 1177 1151" fill="none" xmlns="http://www.w3.org/2000/svg">
<path d="M496 99.5C687.983 99.5 843.5 235.889 843.5 404C843.5 572.111 687.983 708.5 496 708.5C304.017 708.5 148.5 572.111 148.5 404C148.5 235.889 304.017 99.5 496 99.5Z" stroke="#929292" stroke-opacity="0.7"/>
<path d="M496.5 162.5C641.264 162.5 758.5 265.088 758.5 391.5C758.5 517.912 641.264 620.5 496.5 620.5C351.736 620.5 234.5 517.912 234.5 391.5C234.5 265.088 351.736 162.5 496.5 162.5Z" stroke="#929292" stroke-opacity="0.7"/>
<path d="M772.27 375.972C884.007 468.895 961.403 580.924 998.809 684.195C1036.22 787.492 1033.59 881.895 985.508 939.714C937.436 997.519 848.681 1012.4 743.861 989.507C639.069 966.623 518.368 906.012 406.62 813.079C294.865 720.141 215.044 617.808 175.216 524.243C135.384 430.665 135.594 345.974 183.673 288.16C231.771 230.325 322.988 205.775 430.22 218.964C537.429 232.15 660.54 283.054 772.27 375.972Z" stroke="#929292" stroke-opacity="0.7"/>
<path d="M496.5 0.5C742.883 0.5 942.5 175.393 942.5 391C942.5 606.607 742.883 781.5 496.5 781.5C250.116 781.5 50.4998 606.607 50.4998 391C50.4998 175.393 250.116 0.5 496.5 0.5Z" stroke="#929292" stroke-opacity="0.7"/>
<path d="M791.484 549.283C815.097 555.176 829.324 579.764 823.219 604.227C817.113 628.691 793.002 643.711 769.389 637.818C745.776 631.925 731.548 607.337 737.653 582.873C743.759 558.41 767.871 543.39 791.484 549.283Z" stroke="#929292" stroke-opacity="0.5"/>
<g filter="url(#filter0_dddd_1666_36404)">
<path d="M567 409C567 448.212 535.212 480 496 480C456.788 480 425 448.212 425 409C425 369.788 456.788 338 496 338C535.212 338 567 369.788 567 409Z" fill="#F09C9C"/>
<circle cx="453" cy="435" r="7" fill="#EC8383"/>
<circle cx="490" cy="464" r="7" fill="#EC8383"/>
<circle cx="491.5" cy="433.5" r="5.5" fill="#EC8383"/>
<circle cx="473" cy="453" r="4" fill="#EC8383"/>
<circle cx="509" cy="445" r="4" fill="#EC8383"/>
<circle cx="473" cy="432" r="4" fill="#EC8383"/>
</g>
<g filter="url(#filter1_ddddd_1666_36404)">
<circle cx="779.5" cy="582.5" r="25.5" fill="#96D3E6"/>
<path d="M790.5 569C790.5 575.352 775.851 584 769.5 584C763.149 584 758 578.852 758 572.5C758 566.4 763.5 562 768.5 559.5C768.249 559.5 768.752 559.484 768.5 559.5C786 552 790.5 562.649 790.5 569Z" fill="#059714"/>
<path d="M786.499 584.248C788.993 581.765 794.518 572.755 797 575.248C799.481 577.741 795.993 586.265 793.5 588.748C791.105 591.132 776.435 591.985 773.5 590.999C773.598 591.098 773.395 590.907 773.5 590.999C763.717 587.062 784.006 586.731 786.499 584.248Z" fill="#059714"/>
<path d="M761.495 596.109C762.808 593.523 774.872 595.215 779.327 597.476C783.783 599.737 786.332 603.667 785.019 606.253C783.759 608.737 778.991 608.571 774.966 607.809C775.143 607.899 774.786 607.726 774.966 607.809C761.139 604.634 760.183 598.696 761.495 596.109Z" fill="#059714"/>
</g>
<g filter="url(#filter2_dddd_1666_36404)">
<circle cx="780.5" cy="638.5" r="11.5" fill="#E8E8E8"/>
<circle cx="782.5" cy="644.5" r="1.5" fill="#F2F2F2"/>
<circle cx="782.5" cy="644.5" r="1.5" fill="#DBDBDB"/>
<circle cx="782.5" cy="644.5" r="1.5" fill="#DBDBDB"/>
<circle cx="782.5" cy="644.5" r="1.5" fill="#DBDBDB"/>
<circle cx="782.5" cy="644.5" r="1.5" fill="#DBDBDB"/>
<circle cx="778.5" cy="631.5" r="1.5" fill="#F2F2F2"/>
<circle cx="778.5" cy="631.5" r="1.5" fill="#DBDBDB"/>
<circle cx="778.5" cy="631.5" r="1.5" fill="#DBDBDB"/>
<circle cx="778.5" cy="631.5" r="1.5" fill="#DBDBDB"/>
<circle cx="778.5" cy="631.5" r="1.5" fill="#DBDBDB"/>
<circle cx="782" cy="638" r="1" fill="#F2F2F2"/>
<circle cx="782" cy="638" r="1" fill="#DBDBDB"/>
<circle cx="782" cy="638" r="1" fill="#DBDBDB"/>
<circle cx="782" cy="638" r="1" fill="#DBDBDB"/>
<circle cx="782" cy="638" r="1" fill="#DBDBDB"/>
<circle cx="776" cy="641" r="2" fill="#F2F2F2"/>
<circle cx="776" cy="641" r="2" fill="#DBDBDB"/>
<circle cx="776" cy="641" r="2" fill="#DBDBDB"/>
<circle cx="776" cy="641" r="2" fill="#DBDBDB"/>
<circle cx="776" cy="641" r="2" fill="#DBDBDB"/>
<circle cx="788.5" cy="639.5" r="1.5" fill="#F2F2F2"/>
<circle cx="788.5" cy="639.5" r="1.5" fill="#DBDBDB"/>
<circle cx="788.5" cy="639.5" r="1.5" fill="#DBDBDB"/>
<circle cx="788.5" cy="639.5" r="1.5" fill="#DBDBDB"/>
<circle cx="788.5" cy="639.5" r="1.5" fill="#DBDBDB"/>
</g>
<g filter="url(#filter3_dddd_1666_36404)">
<circle cx="26.7652" cy="26.7652" r="26.7652" transform="matrix(-0.925854 -0.377882 -0.377882 0.925854 450.535 588.227)" fill="#C5673E"/>
<path d="M441.194 610.361C449.516 614.226 448.38 614.361 452.261 617.064C459.024 621.773 464.914 629.618 464.091 632.898C463.269 636.179 457.18 636.99 447.099 635.163C437.019 633.335 423.728 629.011 410.011 623.095C396.293 617.178 383.212 610.129 373.506 603.423C363.799 596.717 359.468 591.113 359.185 587.356C358.903 583.599 363.938 582.22 373.237 583.507C374.913 583.83 378.701 584.306 392.962 588.81L392.146 590.121L391.307 591.974C381.566 590.1 386.711 591.09 380.981 589.988C373.938 588.633 367.885 590.434 373.581 596.421C376.428 599.414 374.991 598.072 382.343 603.152C389.76 608.276 401.648 613.996 412.13 618.517C422.611 623.037 430.826 626.773 438.528 628.17C445.669 629.464 452.492 630.36 453.12 627.853C453.749 625.347 448.764 620.663 441.968 615.652C438.766 613.489 440.042 613.703 440.042 613.703L440.856 612.118L441.194 610.361Z" fill="#604827"/>
<circle cx="407.505" cy="589.623" r="3" transform="rotate(10.8902 407.505 589.623)" fill="#BC572C"/>
<circle cx="419.949" cy="601.691" r="4.5" transform="rotate(10.8902 419.949 601.691)" fill="#BC572C"/>
<circle cx="403.293" cy="603.578" r="3.5" transform="rotate(10.8902 403.293 603.578)" fill="#BC572C"/>
<circle cx="419.819" cy="583.845" r="2" transform="rotate(10.8902 419.819 583.845)" fill="#BC572C"/>
<circle cx="396.552" cy="593.625" r="2" transform="rotate(10.8902 396.552 593.625)" fill="#BC572C"/>
<circle cx="411.17" cy="581.163" r="2" transform="rotate(10.8902 411.17 581.163)" fill="#BC572C"/>
</g>
<g filter="url(#filter4_ddddd_1666_36404)">
<g filter="url(#filter5_f_1666_36404)">
<path d="M941.232 988.523C941.563 991.43 917.799 994.975 915.419 997.602C914.127 999.028 912.319 998.865 910.397 1000.09C909.269 1000.82 907.113 1003.44 905.8 1004.07C904.316 1004.78 900.854 1005.86 899.167 1006.44C895.758 1007.6 895.155 1009.5 891.13 1009.96C874.82 1011.82 860.806 1006.37 859.828 997.801C858.851 989.228 871.281 980.771 887.592 978.912C891.617 978.453 892.63 980.165 896.214 980.533C897.987 980.715 901.605 980.989 903.211 981.351C904.632 981.671 908.684 982.261 908.455 983.054C910.604 983.819 912.415 984.009 913.995 985.108C916.905 987.132 940.901 985.617 941.232 988.523Z" fill="url(#paint0_linear_1666_36404)"/>
</g>
<g filter="url(#filter6_f_1666_36404)">
<circle cx="876.445" cy="995.524" r="9.52681" transform="rotate(-6.50225 876.445 995.524)" fill="#B08D4A"/>
</g>
<circle cx="875.787" cy="1001.65" r="1.52429" transform="rotate(-36.5023 875.787 1001.65)" fill="#9C701C"/>
<circle cx="870.187" cy="995.367" r="0.762145" transform="rotate(-36.5023 870.187 995.367)" fill="#9C701C"/>
<circle cx="871.762" cy="999.417" r="1.14322" transform="rotate(-36.5023 871.762 999.417)" fill="#9C701C"/>
</g>
<g filter="url(#filter7_ddddd_1666_36404)">
<circle cx="75.5" cy="521.5" r="34.5" fill="#CC861D"/>
<circle cx="75.5" cy="521.5" r="34.5" stroke="url(#paint1_linear_1666_36404)" stroke-width="2"/>
<circle cx="75.5" cy="521.5" r="34.5" stroke="url(#paint2_linear_1666_36404)" stroke-opacity="0.2" stroke-width="2"/>
<circle cx="81" cy="534" r="4" fill="#6A4000"/>
<circle cx="81" cy="534" r="4" fill="#6A4000"/>
<circle cx="81" cy="534" r="4" fill="#6A4000"/>
<circle cx="81" cy="534" r="4" fill="#6A4000"/>
<circle cx="88.5" cy="519.5" r="5.5" fill="#6A4000"/>
<circle cx="88.5" cy="519.5" r="5.5" fill="#6A4000"/>
<circle cx="88.5" cy="519.5" r="5.5" fill="#6A4000"/>
<circle cx="88.5" cy="519.5" r="5.5" fill="#6A4000"/>
<circle cx="102.5" cy="524.5" r="2.5" fill="#6A4000"/>
<circle cx="102.5" cy="524.5" r="2.5" fill="#6A4000"/>
<circle cx="102.5" cy="524.5" r="2.5" fill="#6A4000"/>
<circle cx="102.5" cy="524.5" r="2.5" fill="#6A4000"/>
<circle cx="53" cy="511" r="2" fill="#6A4000"/>
<circle cx="53" cy="511" r="2" fill="#6A4000"/>
<circle cx="53" cy="511" r="2" fill="#6A4000"/>
<circle cx="53" cy="511" r="2" fill="#6A4000"/>
<circle cx="57.5" cy="527.5" r="2.5" fill="#6A4000"/>
<circle cx="57.5" cy="527.5" r="2.5" fill="#6A4000"/>
<circle cx="57.5" cy="527.5" r="2.5" fill="#6A4000"/>
<circle cx="57.5" cy="527.5" r="2.5" fill="#6A4000"/>
<circle cx="96.5" cy="538.5" r="2.5" fill="#6A4000"/>
<circle cx="96.5" cy="538.5" r="2.5" fill="#6A4000"/>
<circle cx="96.5" cy="538.5" r="2.5" fill="#6A4000"/>
<circle cx="96.5" cy="538.5" r="2.5" fill="#6A4000"/>
<circle cx="80.5" cy="548.5" r="2.5" fill="#6A4000"/>
<circle cx="80.5" cy="548.5" r="2.5" fill="#6A4000"/>
<circle cx="80.5" cy="548.5" r="2.5" fill="#6A4000"/>
<circle cx="80.5" cy="548.5" r="2.5" fill="#6A4000"/>
</g>
<defs>
<filter id="filter0_dddd_1666_36404" x="345" y="330" width="227" height="204" filterUnits="userSpaceOnUse" color-interpolation-filters="sRGB">
<feFlood flood-opacity="0" result="BackgroundImageFix"/>
<feColorMatrix in="SourceAlpha" type="matrix" values="0 0 0 0 0 0 0 0 0 0 0 0 0 0 0 0 0 0 127 0" result="hardAlpha"/>
<feOffset dx="-3" dy="2"/>
<feGaussianBlur stdDeviation="4"/>
<feColorMatrix type="matrix" values="0 0 0 0 0 0 0 0 0 0 0 0 0 0 0 0 0 0 0.18 0"/>
<feBlend mode="normal" in2="BackgroundImageFix" result="effect1_dropShadow_1666_36404"/>
<feColorMatrix in="SourceAlpha" type="matrix" values="0 0 0 0 0 0 0 0 0 0 0 0 0 0 0 0 0 0 127 0" result="hardAlpha"/>
<feOffset dx="-14" dy="7"/>
<feGaussianBlur stdDeviation="7.5"/>
<feColorMatrix type="matrix" values="0 0 0 0 0 0 0 0 0 0 0 0 0 0 0 0 0 0 0.15 0"/>
<feBlend mode="normal" in2="effect1_dropShadow_1666_36404" result="effect2_dropShadow_1666_36404"/>
<feColorMatrix in="SourceAlpha" type="matrix" values="0 0 0 0 0 0 0 0 0 0 0 0 0 0 0 0 0 0 127 0" result="hardAlpha"/>
<feOffset dx="-31" dy="16"/>
<feGaussianBlur stdDeviation="10.5"/>
<feColorMatrix type="matrix" values="0 0 0 0 0 0 0 0 0 0 0 0 0 0 0 0 0 0 0.09 0"/>
<feBlend mode="normal" in2="effect2_dropShadow_1666_36404" result="effect3_dropShadow_1666_36404"/>
<feColorMatrix in="SourceAlpha" type="matrix" values="0 0 0 0 0 0 0 0 0 0 0 0 0 0 0 0 0 0 127 0" result="hardAlpha"/>
<feOffset dx="-55" dy="29"/>
<feGaussianBlur stdDeviation="12.5"/>
<feColorMatrix type="matrix" values="0 0 0 0 0 0 0 0 0 0 0 0 0 0 0 0 0 0 0.03 0"/>
<feBlend mode="normal" in2="effect3_dropShadow_1666_36404" result="effect4_dropShadow_1666_36404"/>
<feBlend mode="normal" in="SourceGraphic" in2="effect4_dropShadow_1666_36404" result="shape"/>
</filter>
<filter id="filter1_ddddd_1666_36404" x="707" y="552.926" width="100" height="78.3813" filterUnits="userSpaceOnUse" color-interpolation-filters="sRGB">
<feFlood flood-opacity="0" result="BackgroundImageFix"/>
<feColorMatrix in="SourceAlpha" type="matrix" values="0 0 0 0 0 0 0 0 0 0 0 0 0 0 0 0 0 0 127 0" result="hardAlpha"/>
<feOffset dx="-1"/>
<feGaussianBlur stdDeviation="1.5"/>
<feColorMatrix type="matrix" values="0 0 0 0 0 0 0 0 0 0 0 0 0 0 0 0 0 0 0.29 0"/>
<feBlend mode="normal" in2="BackgroundImageFix" result="effect1_dropShadow_1666_36404"/>
<feColorMatrix in="SourceAlpha" type="matrix" values="0 0 0 0 0 0 0 0 0 0 0 0 0 0 0 0 0 0 127 0" result="hardAlpha"/>
<feOffset dx="-6" dy="2"/>
<feGaussianBlur stdDeviation="3"/>
<feColorMatrix type="matrix" values="0 0 0 0 0 0 0 0 0 0 0 0 0 0 0 0 0 0 0.25 0"/>
<feBlend mode="normal" in2="effect1_dropShadow_1666_36404" result="effect2_dropShadow_1666_36404"/>
<feColorMatrix in="SourceAlpha" type="matrix" values="0 0 0 0 0 0 0 0 0 0 0 0 0 0 0 0 0 0 127 0" result="hardAlpha"/>
<feOffset dx="-13" dy="4"/>
<feGaussianBlur stdDeviation="4"/>
<feColorMatrix type="matrix" values="0 0 0 0 0 0 0 0 0 0 0 0 0 0 0 0 0 0 0.15 0"/>
<feBlend mode="normal" in2="effect2_dropShadow_1666_36404" result="effect3_dropShadow_1666_36404"/>
<feColorMatrix in="SourceAlpha" type="matrix" values="0 0 0 0 0 0 0 0 0 0 0 0 0 0 0 0 0 0 127 0" result="hardAlpha"/>
<feOffset dx="-23" dy="8"/>
<feGaussianBlur stdDeviation="5"/>
<feColorMatrix type="matrix" values="0 0 0 0 0 0 0 0 0 0 0 0 0 0 0 0 0 0 0.04 0"/>
<feBlend mode="normal" in2="effect3_dropShadow_1666_36404" result="effect4_dropShadow_1666_36404"/>
<feColorMatrix in="SourceAlpha" type="matrix" values="0 0 0 0 0 0 0 0 0 0 0 0 0 0 0 0 0 0 127 0" result="hardAlpha"/>
<feOffset dx="-36" dy="12"/>
<feGaussianBlur stdDeviation="5.5"/>
<feColorMatrix type="matrix" values="0 0 0 0 0 0 0 0 0 0 0 0 0 0 0 0 0 0 0.01 0"/>
<feBlend mode="normal" in2="effect4_dropShadow_1666_36404" result="effect5_dropShadow_1666_36404"/>
<feBlend mode="normal" in="SourceGraphic" in2="effect5_dropShadow_1666_36404" result="shape"/>
</filter>
<filter id="filter2_dddd_1666_36404" x="755" y="625" width="38" height="33" filterUnits="userSpaceOnUse" color-interpolation-filters="sRGB">
<feFlood flood-opacity="0" result="BackgroundImageFix"/>
<feColorMatrix in="SourceAlpha" type="matrix" values="0 0 0 0 0 0 0 0 0 0 0 0 0 0 0 0 0 0 127 0" result="hardAlpha"/>
<feOffset dx="-1"/>
<feGaussianBlur stdDeviation="1"/>
<feColorMatrix type="matrix" values="0 0 0 0 0 0 0 0 0 0 0 0 0 0 0 0 0 0 0.19 0"/>
<feBlend mode="normal" in2="BackgroundImageFix" result="effect1_dropShadow_1666_36404"/>
<feColorMatrix in="SourceAlpha" type="matrix" values="0 0 0 0 0 0 0 0 0 0 0 0 0 0 0 0 0 0 127 0" result="hardAlpha"/>
<feOffset dx="-3" dy="1"/>
<feGaussianBlur stdDeviation="1.5"/>
<feColorMatrix type="matrix" values="0 0 0 0 0 0 0 0 0 0 0 0 0 0 0 0 0 0 0.16 0"/>
<feBlend mode="normal" in2="effect1_dropShadow_1666_36404" result="effect2_dropShadow_1666_36404"/>
<feColorMatrix in="SourceAlpha" type="matrix" values="0 0 0 0 0 0 0 0 0 0 0 0 0 0 0 0 0 0 127 0" result="hardAlpha"/>
<feOffset dx="-6" dy="2"/>
<feGaussianBlur stdDeviation="2"/>
<feColorMatrix type="matrix" values="0 0 0 0 0 0 0 0 0 0 0 0 0 0 0 0 0 0 0.1 0"/>
<feBlend mode="normal" in2="effect2_dropShadow_1666_36404" result="effect3_dropShadow_1666_36404"/>
<feColorMatrix in="SourceAlpha" type="matrix" values="0 0 0 0 0 0 0 0 0 0 0 0 0 0 0 0 0 0 127 0" result="hardAlpha"/>
<feOffset dx="-10" dy="4"/>
<feGaussianBlur stdDeviation="2"/>
<feColorMatrix type="matrix" values="0 0 0 0 0 0 0 0 0 0 0 0 0 0 0 0 0 0 0.03 0"/>
<feBlend mode="normal" in2="effect3_dropShadow_1666_36404" result="effect4_dropShadow_1666_36404"/>
<feBlend mode="normal" in="SourceGraphic" in2="effect4_dropShadow_1666_36404" result="shape"/>
</filter>
<filter id="filter3_dddd_1666_36404" x="292.174" y="562.122" width="175.994" height="97.9973" filterUnits="userSpaceOnUse" color-interpolation-filters="sRGB">
<feFlood flood-opacity="0" result="BackgroundImageFix"/>
<feColorMatrix in="SourceAlpha" type="matrix" values="0 0 0 0 0 0 0 0 0 0 0 0 0 0 0 0 0 0 127 0" result="hardAlpha"/>
<feOffset dx="-3"/>
<feGaussianBlur stdDeviation="3.5"/>
<feColorMatrix type="matrix" values="0 0 0 0 0 0 0 0 0 0 0 0 0 0 0 0 0 0 0.22 0"/>
<feBlend mode="normal" in2="BackgroundImageFix" result="effect1_dropShadow_1666_36404"/>
<feColorMatrix in="SourceAlpha" type="matrix" values="0 0 0 0 0 0 0 0 0 0 0 0 0 0 0 0 0 0 127 0" result="hardAlpha"/>
<feOffset dx="-12" dy="1"/>
<feGaussianBlur stdDeviation="6"/>
<feColorMatrix type="matrix" values="0 0 0 0 0 0 0 0 0 0 0 0 0 0 0 0 0 0 0.19 0"/>
<feBlend mode="normal" in2="effect1_dropShadow_1666_36404" result="effect2_dropShadow_1666_36404"/>
<feColorMatrix in="SourceAlpha" type="matrix" values="0 0 0 0 0 0 0 0 0 0 0 0 0 0 0 0 0 0 127 0" result="hardAlpha"/>
<feOffset dx="-27" dy="3"/>
<feGaussianBlur stdDeviation="8"/>
<feColorMatrix type="matrix" values="0 0 0 0 0 0 0 0 0 0 0 0 0 0 0 0 0 0 0.11 0"/>
<feBlend mode="normal" in2="effect2_dropShadow_1666_36404" result="effect3_dropShadow_1666_36404"/>
<feColorMatrix in="SourceAlpha" type="matrix" values="0 0 0 0 0 0 0 0 0 0 0 0 0 0 0 0 0 0 127 0" result="hardAlpha"/>
<feOffset dx="-48" dy="5"/>
<feGaussianBlur stdDeviation="9.5"/>
<feColorMatrix type="matrix" values="0 0 0 0 0 0 0 0 0 0 0 0 0 0 0 0 0 0 0.03 0"/>
<feBlend mode="normal" in2="effect3_dropShadow_1666_36404" result="effect4_dropShadow_1666_36404"/>
<feBlend mode="normal" in="SourceGraphic" in2="effect4_dropShadow_1666_36404" result="shape"/>
</filter>
<filter id="filter4_ddddd_1666_36404" x="791.775" y="971.835" width="152.461" height="68.4885" filterUnits="userSpaceOnUse" color-interpolation-filters="sRGB">
<feFlood flood-opacity="0" result="BackgroundImageFix"/>
<feColorMatrix in="SourceAlpha" type="matrix" values="0 0 0 0 0 0 0 0 0 0 0 0 0 0 0 0 0 0 127 0" result="hardAlpha"/>
<feOffset dx="-2" dy="1"/>
<feGaussianBlur stdDeviation="2.5"/>
<feColorMatrix type="matrix" values="0 0 0 0 0 0 0 0 0 0 0 0 0 0 0 0 0 0 0.28 0"/>
<feBlend mode="normal" in2="BackgroundImageFix" result="effect1_dropShadow_1666_36404"/>
<feColorMatrix in="SourceAlpha" type="matrix" values="0 0 0 0 0 0 0 0 0 0 0 0 0 0 0 0 0 0 127 0" result="hardAlpha"/>
<feOffset dx="-8" dy="2"/>
<feGaussianBlur stdDeviation="4.5"/>
<feColorMatrix type="matrix" values="0 0 0 0 0 0 0 0 0 0 0 0 0 0 0 0 0 0 0.24 0"/>
<feBlend mode="normal" in2="effect1_dropShadow_1666_36404" result="effect2_dropShadow_1666_36404"/>
<feColorMatrix in="SourceAlpha" type="matrix" values="0 0 0 0 0 0 0 0 0 0 0 0 0 0 0 0 0 0 127 0" result="hardAlpha"/>
<feOffset dx="-19" dy="6"/>
<feGaussianBlur stdDeviation="6"/>
<feColorMatrix type="matrix" values="0 0 0 0 0 0 0 0 0 0 0 0 0 0 0 0 0 0 0.14 0"/>
<feBlend mode="normal" in2="effect2_dropShadow_1666_36404" result="effect3_dropShadow_1666_36404"/>
<feColorMatrix in="SourceAlpha" type="matrix" values="0 0 0 0 0 0 0 0 0 0 0 0 0 0 0 0 0 0 127 0" result="hardAlpha"/>
<feOffset dx="-34" dy="10"/>
<feGaussianBlur stdDeviation="7"/>
<feColorMatrix type="matrix" values="0 0 0 0 0 0 0 0 0 0 0 0 0 0 0 0 0 0 0.04 0"/>
<feBlend mode="normal" in2="effect3_dropShadow_1666_36404" result="effect4_dropShadow_1666_36404"/>
<feColorMatrix in="SourceAlpha" type="matrix" values="0 0 0 0 0 0 0 0 0 0 0 0 0 0 0 0 0 0 127 0" result="hardAlpha"/>
<feOffset dx="-53" dy="15"/>
<feGaussianBlur stdDeviation="7.5"/>
<feColorMatrix type="matrix" values="0 0 0 0 0 0 0 0 0 0 0 0 0 0 0 0 0 0 0.01 0"/>
<feBlend mode="normal" in2="effect4_dropShadow_1666_36404" result="effect5_dropShadow_1666_36404"/>
<feBlend mode="normal" in="SourceGraphic" in2="effect5_dropShadow_1666_36404" result="shape"/>
</filter>
<filter id="filter5_f_1666_36404" x="859.075" y="978.135" width="82.8608" height="32.8885" filterUnits="userSpaceOnUse" color-interpolation-filters="sRGB">
<feFlood flood-opacity="0" result="BackgroundImageFix"/>
<feBlend mode="normal" in="SourceGraphic" in2="BackgroundImageFix" result="shape"/>
<feGaussianBlur stdDeviation="0.35" result="effect1_foregroundBlur_1666_36404"/>
</filter>
<filter id="filter6_f_1666_36404" x="866.017" y="985.096" width="20.8553" height="20.8554" filterUnits="userSpaceOnUse" color-interpolation-filters="sRGB">
<feFlood flood-opacity="0" result="BackgroundImageFix"/>
<feBlend mode="normal" in="SourceGraphic" in2="BackgroundImageFix" result="shape"/>
<feGaussianBlur stdDeviation="0.45" result="effect1_foregroundBlur_1666_36404"/>
</filter>
<filter id="filter7_ddddd_1666_36404" x="0" y="483" width="114" height="112" filterUnits="userSpaceOnUse" color-interpolation-filters="sRGB">
<feFlood flood-opacity="0" result="BackgroundImageFix"/>
<feColorMatrix in="SourceAlpha" type="matrix" values="0 0 0 0 0 0 0 0 0 0 0 0 0 0 0 0 0 0 127 0" result="hardAlpha"/>
<feOffset dx="-1" dy="1"/>
<feGaussianBlur stdDeviation="2"/>
<feColorMatrix type="matrix" values="0 0 0 0 0 0 0 0 0 0 0 0 0 0 0 0 0 0 0.29 0"/>
<feBlend mode="normal" in2="BackgroundImageFix" result="effect1_dropShadow_1666_36404"/>
<feColorMatrix in="SourceAlpha" type="matrix" values="0 0 0 0 0 0 0 0 0 0 0 0 0 0 0 0 0 0 127 0" result="hardAlpha"/>
<feOffset dx="-5" dy="4"/>
<feGaussianBlur stdDeviation="3"/>
<feColorMatrix type="matrix" values="0 0 0 0 0 0 0 0 0 0 0 0 0 0 0 0 0 0 0.26 0"/>
<feBlend mode="normal" in2="effect1_dropShadow_1666_36404" result="effect2_dropShadow_1666_36404"/>
<feColorMatrix in="SourceAlpha" type="matrix" values="0 0 0 0 0 0 0 0 0 0 0 0 0 0 0 0 0 0 127 0" result="hardAlpha"/>
<feOffset dx="-11" dy="10"/>
<feGaussianBlur stdDeviation="4.5"/>
<feColorMatrix type="matrix" values="0 0 0 0 0 0 0 0 0 0 0 0 0 0 0 0 0 0 0.15 0"/>
<feBlend mode="normal" in2="effect2_dropShadow_1666_36404" result="effect3_dropShadow_1666_36404"/>
<feColorMatrix in="SourceAlpha" type="matrix" values="0 0 0 0 0 0 0 0 0 0 0 0 0 0 0 0 0 0 127 0" result="hardAlpha"/>
<feOffset dx="-19" dy="17"/>
<feGaussianBlur stdDeviation="5"/>
<feColorMatrix type="matrix" values="0 0 0 0 0 0 0 0 0 0 0 0 0 0 0 0 0 0 0.04 0"/>
<feBlend mode="normal" in2="effect3_dropShadow_1666_36404" result="effect4_dropShadow_1666_36404"/>
<feColorMatrix in="SourceAlpha" type="matrix" values="0 0 0 0 0 0 0 0 0 0 0 0 0 0 0 0 0 0 127 0" result="hardAlpha"/>
<feOffset dx="-29" dy="27"/>
<feGaussianBlur stdDeviation="5.5"/>
<feColorMatrix type="matrix" values="0 0 0 0 0 0 0 0 0 0 0 0 0 0 0 0 0 0 0.01 0"/>
<feBlend mode="normal" in2="effect4_dropShadow_1666_36404" result="effect5_dropShadow_1666_36404"/>
<feBlend mode="normal" in="SourceGraphic" in2="effect5_dropShadow_1666_36404" result="shape"/>
</filter>
<linearGradient id="paint0_linear_1666_36404" x1="860.207" y1="997.758" x2="954.105" y2="987.056" gradientUnits="userSpaceOnUse">
<stop stop-color="#FF4747"/>
<stop offset="1" stop-color="#FCFF5E"/>
</linearGradient>
<linearGradient id="paint1_linear_1666_36404" x1="92.6077" y1="504.258" x2="57.7365" y2="549.005" gradientUnits="userSpaceOnUse">
<stop stop-color="#FFDEAB"/>
<stop offset="1" stop-color="#5B3700"/>
</linearGradient>
<linearGradient id="paint2_linear_1666_36404" x1="95.07" y1="491.479" x2="116.428" y2="475.05" gradientUnits="userSpaceOnUse">
<stop offset="0.3" stop-color="white" stop-opacity="0"/>
<stop offset="1" stop-color="white"/>
</linearGradient>
</defs>
</svg>
