<svg width="1163" height="709" viewBox="0 0 1163 709" fill="none" xmlns="http://www.w3.org/2000/svg">
<path d="M504.674 -277.5C696.657 -277.5 852.174 -141.111 852.174 27C852.174 195.111 696.657 331.5 504.674 331.5C312.691 331.5 157.174 195.111 157.174 27C157.174 -141.111 312.691 -277.5 504.674 -277.5Z" stroke="black" stroke-opacity="0.7"/>
<path d="M505.174 -214.5C649.938 -214.5 767.174 -111.912 767.174 14.5C767.174 140.912 649.938 243.5 505.174 243.5C360.41 243.5 243.174 140.912 243.174 14.5C243.174 -111.912 360.41 -214.5 505.174 -214.5Z" stroke="black" stroke-opacity="0.7"/>
<path d="M789.901 8.39107C892.735 109.695 962.452 225.097 992.056 329.762C1021.66 434.444 1011.12 528.274 953.637 586.6C896.149 644.925 802.46 656.843 697.326 628.787C592.209 600.736 475.763 532.744 372.929 431.44C270.095 330.136 200.378 214.734 170.774 110.069C141.166 5.38737 151.706 -88.4432 209.193 -146.769C266.681 -205.094 360.37 -217.012 465.504 -188.956C570.621 -160.905 687.067 -92.9133 789.901 8.39107Z" stroke="black" stroke-opacity="0.7"/>
<path d="M505.174 -376.5C751.557 -376.5 951.174 -201.607 951.174 14C951.174 229.607 751.557 404.5 505.174 404.5C258.791 404.5 59.1741 229.607 59.1741 14C59.1741 -201.607 258.791 -376.5 505.174 -376.5Z" stroke="black" stroke-opacity="0.7"/>
<path d="M799.729 172.258C823.292 178.136 837.491 202.658 831.401 227.054C825.311 251.45 801.252 266.427 777.69 260.548C754.127 254.669 739.928 230.148 746.018 205.751C752.108 181.355 776.167 166.379 799.729 172.258Z" stroke="black" stroke-opacity="0.7"/>
<g filter="url(#filter0_dddd_1666_31328)">
<path d="M575.674 32C575.674 71.2122 543.886 103 504.674 103C465.462 103 433.674 71.2122 433.674 32C433.674 -7.21222 465.462 -39 504.674 -39C543.886 -39 575.674 -7.21222 575.674 32Z" fill="#F09C9C"/>
<ellipse cx="461.674" cy="58" rx="7" ry="7" fill="#F09C9C"/>
<ellipse cx="498.674" cy="87" rx="7" ry="7" fill="#F09C9C"/>
<circle cx="500.174" cy="56.5" r="5.5" fill="#F09C9C"/>
<ellipse cx="481.674" cy="76" rx="4" ry="4" fill="#F09C9C"/>
<ellipse cx="517.674" cy="68" rx="4" ry="4" fill="#F09C9C"/>
<ellipse cx="481.674" cy="55" rx="4" ry="4" fill="#F09C9C"/>
</g>
<g filter="url(#filter1_ddddd_1666_31328)">
<circle cx="788.174" cy="205.5" r="25.5" fill="#96D3E6"/>
<path d="M799.674 192.041C799.674 198.375 784.8 207 778.351 207C771.902 207 766.674 201.865 766.674 195.532C766.674 189.449 772.259 185.061 777.336 182.567C777.08 182.567 777.591 182.552 777.336 182.567C795.105 175.088 799.674 185.708 799.674 192.041Z" fill="#3E9E00"/>
<path d="M795.505 207.601C798.035 205.068 803.661 195.896 806.148 198.409C808.634 200.921 805.065 209.589 802.535 212.122C800.106 214.555 785.31 215.51 782.356 214.529C782.455 214.629 782.252 214.436 782.356 214.529C772.517 210.597 792.976 210.135 795.505 207.601Z" fill="#3E9E00"/>
<path d="M769.927 219.402C771.194 216.888 783.359 218.793 787.884 221.103C792.41 223.413 795.051 227.323 793.783 229.837C792.565 232.251 787.768 231.992 783.706 231.162C783.885 231.254 783.524 231.077 783.706 231.162C769.74 227.766 768.659 221.915 769.927 219.402Z" fill="#3E9E00"/>
</g>
<g filter="url(#filter2_dddd_1666_31328)">
<circle cx="789.174" cy="261.5" r="11.5" fill="#F5F0E8"/>
<circle cx="791.174" cy="267.5" r="1.5" fill="#1A1A1A" fill-opacity="0.1"/>
<circle cx="787.174" cy="254.5" r="1.5" fill="#1A1A1A" fill-opacity="0.1"/>
<circle cx="790.674" cy="261" r="1" fill="#1A1A1A" fill-opacity="0.1"/>
<circle cx="784.674" cy="264" r="2" fill="#1A1A1A" fill-opacity="0.1"/>
<circle cx="797.174" cy="262.5" r="1.5" fill="#1A1A1A" fill-opacity="0.1"/>
</g>
<g filter="url(#filter3_ddddd_1666_31328)">
<g filter="url(#filter4_f_1666_31328)">
<path d="M935.894 615.754C936.645 618.557 913.644 625.572 911.672 628.504C910.601 630.096 908.788 630.205 907.065 631.697C906.054 632.573 904.302 635.466 903.095 636.281C901.73 637.202 898.461 638.779 896.876 639.596C893.672 641.246 893.352 643.196 889.435 644.245C873.565 648.497 858.903 645.24 856.687 636.972C854.471 628.703 865.539 618.554 881.41 614.302C885.326 613.253 886.579 614.782 890.179 614.61C891.961 614.525 895.58 614.256 897.223 614.372C898.676 614.474 902.772 614.451 902.66 615.263C904.898 615.694 906.719 615.611 908.442 616.454C911.617 618.008 935.143 612.95 935.894 615.754Z" fill="url(#paint0_linear_1666_31328)"/>
</g>
<g filter="url(#filter5_f_1666_31328)">
<circle cx="9.5" cy="9.5" r="9.5" transform="matrix(0.965943 -0.258756 0.258882 0.965909 860.674 626)" fill="#C5673E"/>
</g>
<circle cx="1.5" cy="1.5" r="1.5" transform="matrix(0.709817 -0.704386 0.709829 0.704374 870.674 638)" fill="#C5673E"/>
<circle cx="1" cy="1" r="1" transform="matrix(0.709817 -0.704386 0.709829 0.704374 865.674 633)" fill="#C5673E"/>
<circle cx="1" cy="1" r="1" transform="matrix(0.709817 -0.704386 0.709829 0.704374 866.674 637)" fill="#C5673E"/>
</g>
<g filter="url(#filter6_ddddd_1666_31328)">
<circle cx="84.1741" cy="144.5" r="35.5" fill="#C5673E"/>
<circle cx="84.1741" cy="144.5" r="34.5" stroke="white" stroke-opacity="0.1" stroke-width="2"/>
<ellipse cx="89.6741" cy="157" rx="4" ry="4" fill="#6A4000"/>
<circle cx="97.1741" cy="142.5" r="5.5" fill="#6A4000"/>
<ellipse cx="111.174" cy="147.5" rx="2.5" ry="2.5" fill="#6A4000"/>
<ellipse cx="61.6741" cy="134" rx="2" ry="2" fill="#6A4000"/>
<ellipse cx="66.1741" cy="150.5" rx="2.5" ry="2.5" fill="#6A4000"/>
<ellipse cx="105.174" cy="161.5" rx="2.5" ry="2.5" fill="#6A4000"/>
<ellipse cx="89.1741" cy="171.5" rx="2.5" ry="2.5" fill="#6A4000"/>
</g>
<defs>
<filter id="filter0_dddd_1666_31328" x="353.674" y="-47" width="227" height="204" filterUnits="userSpaceOnUse" color-interpolation-filters="sRGB">
<feFlood flood-opacity="0" result="BackgroundImageFix"/>
<feColorMatrix in="SourceAlpha" type="matrix" values="0 0 0 0 0 0 0 0 0 0 0 0 0 0 0 0 0 0 127 0" result="hardAlpha"/>
<feOffset dx="-3" dy="2"/>
<feGaussianBlur stdDeviation="4"/>
<feColorMatrix type="matrix" values="0 0 0 0 0 0 0 0 0 0 0 0 0 0 0 0 0 0 0.18 0"/>
<feBlend mode="normal" in2="BackgroundImageFix" result="effect1_dropShadow_1666_31328"/>
<feColorMatrix in="SourceAlpha" type="matrix" values="0 0 0 0 0 0 0 0 0 0 0 0 0 0 0 0 0 0 127 0" result="hardAlpha"/>
<feOffset dx="-14" dy="7"/>
<feGaussianBlur stdDeviation="7.5"/>
<feColorMatrix type="matrix" values="0 0 0 0 0 0 0 0 0 0 0 0 0 0 0 0 0 0 0.15 0"/>
<feBlend mode="normal" in2="effect1_dropShadow_1666_31328" result="effect2_dropShadow_1666_31328"/>
<feColorMatrix in="SourceAlpha" type="matrix" values="0 0 0 0 0 0 0 0 0 0 0 0 0 0 0 0 0 0 127 0" result="hardAlpha"/>
<feOffset dx="-31" dy="16"/>
<feGaussianBlur stdDeviation="10.5"/>
<feColorMatrix type="matrix" values="0 0 0 0 0 0 0 0 0 0 0 0 0 0 0 0 0 0 0.09 0"/>
<feBlend mode="normal" in2="effect2_dropShadow_1666_31328" result="effect3_dropShadow_1666_31328"/>
<feColorMatrix in="SourceAlpha" type="matrix" values="0 0 0 0 0 0 0 0 0 0 0 0 0 0 0 0 0 0 127 0" result="hardAlpha"/>
<feOffset dx="-55" dy="29"/>
<feGaussianBlur stdDeviation="12.5"/>
<feColorMatrix type="matrix" values="0 0 0 0 0 0 0 0 0 0 0 0 0 0 0 0 0 0 0.03 0"/>
<feBlend mode="normal" in2="effect3_dropShadow_1666_31328" result="effect4_dropShadow_1666_31328"/>
<feBlend mode="normal" in="SourceGraphic" in2="effect4_dropShadow_1666_31328" result="shape"/>
</filter>
<filter id="filter1_ddddd_1666_31328" x="715.674" y="176" width="100" height="78.7498" filterUnits="userSpaceOnUse" color-interpolation-filters="sRGB">
<feFlood flood-opacity="0" result="BackgroundImageFix"/>
<feColorMatrix in="SourceAlpha" type="matrix" values="0 0 0 0 0 0 0 0 0 0 0 0 0 0 0 0 0 0 127 0" result="hardAlpha"/>
<feOffset dx="-1"/>
<feGaussianBlur stdDeviation="1.5"/>
<feColorMatrix type="matrix" values="0 0 0 0 0 0 0 0 0 0 0 0 0 0 0 0 0 0 0.29 0"/>
<feBlend mode="normal" in2="BackgroundImageFix" result="effect1_dropShadow_1666_31328"/>
<feColorMatrix in="SourceAlpha" type="matrix" values="0 0 0 0 0 0 0 0 0 0 0 0 0 0 0 0 0 0 127 0" result="hardAlpha"/>
<feOffset dx="-6" dy="2"/>
<feGaussianBlur stdDeviation="3"/>
<feColorMatrix type="matrix" values="0 0 0 0 0 0 0 0 0 0 0 0 0 0 0 0 0 0 0.25 0"/>
<feBlend mode="normal" in2="effect1_dropShadow_1666_31328" result="effect2_dropShadow_1666_31328"/>
<feColorMatrix in="SourceAlpha" type="matrix" values="0 0 0 0 0 0 0 0 0 0 0 0 0 0 0 0 0 0 127 0" result="hardAlpha"/>
<feOffset dx="-13" dy="4"/>
<feGaussianBlur stdDeviation="4"/>
<feColorMatrix type="matrix" values="0 0 0 0 0 0 0 0 0 0 0 0 0 0 0 0 0 0 0.15 0"/>
<feBlend mode="normal" in2="effect2_dropShadow_1666_31328" result="effect3_dropShadow_1666_31328"/>
<feColorMatrix in="SourceAlpha" type="matrix" values="0 0 0 0 0 0 0 0 0 0 0 0 0 0 0 0 0 0 127 0" result="hardAlpha"/>
<feOffset dx="-23" dy="8"/>
<feGaussianBlur stdDeviation="5"/>
<feColorMatrix type="matrix" values="0 0 0 0 0 0 0 0 0 0 0 0 0 0 0 0 0 0 0.04 0"/>
<feBlend mode="normal" in2="effect3_dropShadow_1666_31328" result="effect4_dropShadow_1666_31328"/>
<feColorMatrix in="SourceAlpha" type="matrix" values="0 0 0 0 0 0 0 0 0 0 0 0 0 0 0 0 0 0 127 0" result="hardAlpha"/>
<feOffset dx="-36" dy="12"/>
<feGaussianBlur stdDeviation="5.5"/>
<feColorMatrix type="matrix" values="0 0 0 0 0 0 0 0 0 0 0 0 0 0 0 0 0 0 0.01 0"/>
<feBlend mode="normal" in2="effect4_dropShadow_1666_31328" result="effect5_dropShadow_1666_31328"/>
<feBlend mode="normal" in="SourceGraphic" in2="effect5_dropShadow_1666_31328" result="shape"/>
</filter>
<filter id="filter2_dddd_1666_31328" x="763.674" y="248" width="38" height="33" filterUnits="userSpaceOnUse" color-interpolation-filters="sRGB">
<feFlood flood-opacity="0" result="BackgroundImageFix"/>
<feColorMatrix in="SourceAlpha" type="matrix" values="0 0 0 0 0 0 0 0 0 0 0 0 0 0 0 0 0 0 127 0" result="hardAlpha"/>
<feOffset dx="-1"/>
<feGaussianBlur stdDeviation="1"/>
<feColorMatrix type="matrix" values="0 0 0 0 0 0 0 0 0 0 0 0 0 0 0 0 0 0 0.19 0"/>
<feBlend mode="normal" in2="BackgroundImageFix" result="effect1_dropShadow_1666_31328"/>
<feColorMatrix in="SourceAlpha" type="matrix" values="0 0 0 0 0 0 0 0 0 0 0 0 0 0 0 0 0 0 127 0" result="hardAlpha"/>
<feOffset dx="-3" dy="1"/>
<feGaussianBlur stdDeviation="1.5"/>
<feColorMatrix type="matrix" values="0 0 0 0 0 0 0 0 0 0 0 0 0 0 0 0 0 0 0.16 0"/>
<feBlend mode="normal" in2="effect1_dropShadow_1666_31328" result="effect2_dropShadow_1666_31328"/>
<feColorMatrix in="SourceAlpha" type="matrix" values="0 0 0 0 0 0 0 0 0 0 0 0 0 0 0 0 0 0 127 0" result="hardAlpha"/>
<feOffset dx="-6" dy="2"/>
<feGaussianBlur stdDeviation="2"/>
<feColorMatrix type="matrix" values="0 0 0 0 0 0 0 0 0 0 0 0 0 0 0 0 0 0 0.1 0"/>
<feBlend mode="normal" in2="effect2_dropShadow_1666_31328" result="effect3_dropShadow_1666_31328"/>
<feColorMatrix in="SourceAlpha" type="matrix" values="0 0 0 0 0 0 0 0 0 0 0 0 0 0 0 0 0 0 127 0" result="hardAlpha"/>
<feOffset dx="-10" dy="4"/>
<feGaussianBlur stdDeviation="2"/>
<feColorMatrix type="matrix" values="0 0 0 0 0 0 0 0 0 0 0 0 0 0 0 0 0 0 0.03 0"/>
<feBlend mode="normal" in2="effect3_dropShadow_1666_31328" result="effect4_dropShadow_1666_31328"/>
<feBlend mode="normal" in="SourceGraphic" in2="effect4_dropShadow_1666_31328" result="shape"/>
</filter>
<filter id="filter3_ddddd_1666_31328" x="788.404" y="606.932" width="150.508" height="69.1804" filterUnits="userSpaceOnUse" color-interpolation-filters="sRGB">
<feFlood flood-opacity="0" result="BackgroundImageFix"/>
<feColorMatrix in="SourceAlpha" type="matrix" values="0 0 0 0 0 0 0 0 0 0 0 0 0 0 0 0 0 0 127 0" result="hardAlpha"/>
<feOffset dx="-2" dy="1"/>
<feGaussianBlur stdDeviation="2.5"/>
<feColorMatrix type="matrix" values="0 0 0 0 0 0 0 0 0 0 0 0 0 0 0 0 0 0 0.28 0"/>
<feBlend mode="normal" in2="BackgroundImageFix" result="effect1_dropShadow_1666_31328"/>
<feColorMatrix in="SourceAlpha" type="matrix" values="0 0 0 0 0 0 0 0 0 0 0 0 0 0 0 0 0 0 127 0" result="hardAlpha"/>
<feOffset dx="-8" dy="2"/>
<feGaussianBlur stdDeviation="4.5"/>
<feColorMatrix type="matrix" values="0 0 0 0 0 0 0 0 0 0 0 0 0 0 0 0 0 0 0.24 0"/>
<feBlend mode="normal" in2="effect1_dropShadow_1666_31328" result="effect2_dropShadow_1666_31328"/>
<feColorMatrix in="SourceAlpha" type="matrix" values="0 0 0 0 0 0 0 0 0 0 0 0 0 0 0 0 0 0 127 0" result="hardAlpha"/>
<feOffset dx="-19" dy="6"/>
<feGaussianBlur stdDeviation="6"/>
<feColorMatrix type="matrix" values="0 0 0 0 0 0 0 0 0 0 0 0 0 0 0 0 0 0 0.14 0"/>
<feBlend mode="normal" in2="effect2_dropShadow_1666_31328" result="effect3_dropShadow_1666_31328"/>
<feColorMatrix in="SourceAlpha" type="matrix" values="0 0 0 0 0 0 0 0 0 0 0 0 0 0 0 0 0 0 127 0" result="hardAlpha"/>
<feOffset dx="-34" dy="10"/>
<feGaussianBlur stdDeviation="7"/>
<feColorMatrix type="matrix" values="0 0 0 0 0 0 0 0 0 0 0 0 0 0 0 0 0 0 0.04 0"/>
<feBlend mode="normal" in2="effect3_dropShadow_1666_31328" result="effect4_dropShadow_1666_31328"/>
<feColorMatrix in="SourceAlpha" type="matrix" values="0 0 0 0 0 0 0 0 0 0 0 0 0 0 0 0 0 0 127 0" result="hardAlpha"/>
<feOffset dx="-53" dy="15"/>
<feGaussianBlur stdDeviation="7.5"/>
<feColorMatrix type="matrix" values="0 0 0 0 0 0 0 0 0 0 0 0 0 0 0 0 0 0 0.01 0"/>
<feBlend mode="normal" in2="effect4_dropShadow_1666_31328" result="effect5_dropShadow_1666_31328"/>
<feBlend mode="normal" in="SourceGraphic" in2="effect5_dropShadow_1666_31328" result="shape"/>
</filter>
<filter id="filter4_f_1666_31328" x="855.704" y="613.232" width="80.9078" height="33.5804" filterUnits="userSpaceOnUse" color-interpolation-filters="sRGB">
<feFlood flood-opacity="0" result="BackgroundImageFix"/>
<feBlend mode="normal" in="SourceGraphic" in2="BackgroundImageFix" result="shape"/>
<feGaussianBlur stdDeviation="0.35" result="effect1_foregroundBlur_1666_31328"/>
</filter>
<filter id="filter5_f_1666_31328" x="861.907" y="622.316" width="20.8054" height="20.8042" filterUnits="userSpaceOnUse" color-interpolation-filters="sRGB">
<feFlood flood-opacity="0" result="BackgroundImageFix"/>
<feBlend mode="normal" in="SourceGraphic" in2="BackgroundImageFix" result="shape"/>
<feGaussianBlur stdDeviation="0.45" result="effect1_foregroundBlur_1666_31328"/>
</filter>
<filter id="filter6_ddddd_1666_31328" x="8.67407" y="106" width="114" height="112" filterUnits="userSpaceOnUse" color-interpolation-filters="sRGB">
<feFlood flood-opacity="0" result="BackgroundImageFix"/>
<feColorMatrix in="SourceAlpha" type="matrix" values="0 0 0 0 0 0 0 0 0 0 0 0 0 0 0 0 0 0 127 0" result="hardAlpha"/>
<feOffset dx="-1" dy="1"/>
<feGaussianBlur stdDeviation="2"/>
<feColorMatrix type="matrix" values="0 0 0 0 0 0 0 0 0 0 0 0 0 0 0 0 0 0 0.29 0"/>
<feBlend mode="normal" in2="BackgroundImageFix" result="effect1_dropShadow_1666_31328"/>
<feColorMatrix in="SourceAlpha" type="matrix" values="0 0 0 0 0 0 0 0 0 0 0 0 0 0 0 0 0 0 127 0" result="hardAlpha"/>
<feOffset dx="-5" dy="4"/>
<feGaussianBlur stdDeviation="3"/>
<feColorMatrix type="matrix" values="0 0 0 0 0 0 0 0 0 0 0 0 0 0 0 0 0 0 0.26 0"/>
<feBlend mode="normal" in2="effect1_dropShadow_1666_31328" result="effect2_dropShadow_1666_31328"/>
<feColorMatrix in="SourceAlpha" type="matrix" values="0 0 0 0 0 0 0 0 0 0 0 0 0 0 0 0 0 0 127 0" result="hardAlpha"/>
<feOffset dx="-11" dy="10"/>
<feGaussianBlur stdDeviation="4.5"/>
<feColorMatrix type="matrix" values="0 0 0 0 0 0 0 0 0 0 0 0 0 0 0 0 0 0 0.15 0"/>
<feBlend mode="normal" in2="effect2_dropShadow_1666_31328" result="effect3_dropShadow_1666_31328"/>
<feColorMatrix in="SourceAlpha" type="matrix" values="0 0 0 0 0 0 0 0 0 0 0 0 0 0 0 0 0 0 127 0" result="hardAlpha"/>
<feOffset dx="-19" dy="17"/>
<feGaussianBlur stdDeviation="5"/>
<feColorMatrix type="matrix" values="0 0 0 0 0 0 0 0 0 0 0 0 0 0 0 0 0 0 0.04 0"/>
<feBlend mode="normal" in2="effect3_dropShadow_1666_31328" result="effect4_dropShadow_1666_31328"/>
<feColorMatrix in="SourceAlpha" type="matrix" values="0 0 0 0 0 0 0 0 0 0 0 0 0 0 0 0 0 0 127 0" result="hardAlpha"/>
<feOffset dx="-29" dy="27"/>
<feGaussianBlur stdDeviation="5.5"/>
<feColorMatrix type="matrix" values="0 0 0 0 0 0 0 0 0 0 0 0 0 0 0 0 0 0 0.01 0"/>
<feBlend mode="normal" in2="effect4_dropShadow_1666_31328" result="effect5_dropShadow_1666_31328"/>
<feBlend mode="normal" in="SourceGraphic" in2="effect5_dropShadow_1666_31328" result="shape"/>
</filter>
<linearGradient id="paint0_linear_1666_31328" x1="857.055" y1="636.873" x2="948.417" y2="612.386" gradientUnits="userSpaceOnUse">
<stop stop-color="#FF4747"/>
<stop offset="1" stop-color="#FCFF5E"/>
</linearGradient>
</defs>
</svg>
